<?xml version="1.0" encoding="iso-8859-1"?>
<!-- Generator: Adobe Illustrator 19.0.0, SVG Export Plug-In . SVG Version: 6.00 Build 0)  -->
<svg version="1.1" id="Capa_1" xmlns="http://www.w3.org/2000/svg" xmlns:xlink="http://www.w3.org/1999/xlink" x="0px" y="0px"
	 viewBox="0 0 490 490" style="enable-background:new 0 0 490 490;" xml:space="preserve">
<g fill="#F05F40">
	<path d="M0,444.063h490V45.938H0V444.063z M15.312,61.25h459.375v367.5H15.312V61.25z"/>
	<polygon points="143.514,162.983 143.514,253.246 221.684,208.114 	"/>
	<rect x="76.522" y="338.221" width="336.875" height="15.313"/>
	<rect x="76.447" y="368.846" width="336.875" height="15.313"/>
	<rect x="302.501" y="120.879" width="110.896" height="45.899"/>
	<rect x="302.501" y="249.294" width="110.896" height="45.899"/>
	<rect x="302.501" y="185.165" width="110.896" height="45.899"/>
	<path d="M106.385,301.226h138.62c16.479,0,29.892-13.413,29.892-29.892V144.736c0-16.479-13.413-29.892-29.892-29.892h-138.62
		c-16.494,0-29.907,13.413-29.907,29.892v126.597C76.477,287.812,89.891,301.226,106.385,301.226z M91.79,144.736
		c0-8.045,6.55-14.58,14.595-14.58h138.62c8.045,0,14.58,6.535,14.58,14.58v126.597c0,8.045-6.535,14.58-14.58,14.58h-138.62
		c-8.045,0-14.595-6.535-14.595-14.58V144.736z"/>
</g>
<g>
</g>
<g>
</g>
<g>
</g>
<g>
</g>
<g>
</g>
<g>
</g>
<g>
</g>
<g>
</g>
<g>
</g>
<g>
</g>
<g>
</g>
<g>
</g>
<g>
</g>
<g>
</g>
<g>
</g>
</svg>
